<?xml version="1.0" standalone="no"?>
<!DOCTYPE svg PUBLIC "-//W3C//DTD SVG 20010904//EN"
 "http://www.w3.org/TR/2001/REC-SVG-20010904/DTD/svg10.dtd">
<svg version="1.0" xmlns="http://www.w3.org/2000/svg"
 width="500.000000pt" height="500.000000pt" viewBox="0 0 500.000000 500.000000"
 preserveAspectRatio="xMidYMid meet">

<g transform="translate(0.000000,500.000000) scale(0.100000,-0.100000)"
fill="#000000" stroke="none">
<path d="M877 3233 c-4 -3 -7 -44 -7 -90 l0 -83 -84 0 c-75 0 -88 -3 -113 -24
l-28 -24 -3 -278 c-2 -191 1 -286 8 -305 11 -27 62 -59 93 -59 8 0 21 7 28 16
11 14 10 18 -6 30 -10 8 -27 14 -37 14 -9 0 -22 9 -28 19 -13 25 -13 520 0
541 7 11 36 16 112 20 l103 5 3 63 c2 34 6 62 10 62 4 0 37 -29 72 -65 l64
-65 226 0 c124 0 231 -4 238 -9 7 -4 16 -21 21 -37 5 -19 14 -29 27 -29 31 0
24 72 -10 102 -27 23 -32 23 -249 23 l-222 0 -90 90 c-82 83 -111 101 -128 83z"/>
<path d="M838 2895 c-45 -25 -50 -64 -46 -352 l3 -263 28 -27 27 -28 178 -3
c97 -1 183 2 191 7 8 5 11 16 8 25 -6 14 -30 16 -175 16 -127 0 -173 3 -187
14 -18 13 -19 30 -18 279 0 200 3 270 13 282 11 13 65 15 411 15 348 0 400 -2
413 -16 14 -13 16 -53 16 -278 0 -315 9 -294 -130 -298 l-95 -3 -3 -62 c-2
-35 -6 -63 -10 -63 -12 0 -419 413 -431 437 -25 50 -5 125 43 157 14 9 45 16
70 16 35 0 54 -7 89 -34 l45 -34 28 29 c70 74 186 47 214 -49 16 -57 -3 -90
-115 -202 -78 -78 -104 -111 -99 -123 3 -9 12 -17 18 -17 15 0 195 174 220
212 65 100 14 236 -99 268 -51 14 -114 2 -148 -28 -17 -15 -21 -15 -55 4 -20
12 -51 25 -69 28 -65 15 -155 -31 -188 -95 -19 -36 -19 -122 -1 -157 8 -15
125 -137 259 -271 176 -175 250 -242 261 -238 13 5 16 23 16 92 l0 85 75 0
c41 0 86 5 100 12 52 23 55 43 55 342 l0 275 -24 28 -24 28 -419 2 c-355 2
-422 0 -445 -12z"/>
<path d="M1984 2727 c-2 -7 -3 -62 -2 -123 3 -101 4 -109 23 -109 18 0 20 8
23 83 2 45 6 82 11 82 4 0 16 -9 26 -20 10 -11 23 -20 30 -20 7 0 20 9 30 20
36 40 45 26 45 -65 0 -79 1 -85 20 -85 20 0 20 5 18 122 -3 141 -11 151 -71
99 -19 -17 -39 -31 -44 -31 -5 0 -22 14 -38 30 -30 31 -62 39 -71 17z"/>
<path d="M2315 2728 c-13 -41 -65 -223 -65 -230 0 -20 41 -6 50 17 8 20 16 25
45 25 29 0 37 -5 45 -25 9 -23 50 -37 50 -17 0 4 -16 59 -34 122 -31 106 -36
115 -60 118 -15 2 -28 -2 -31 -10z m45 -114 c0 -17 -5 -24 -20 -24 -13 0 -18
5 -15 15 3 8 7 22 10 31 7 22 25 7 25 -22z"/>
<path d="M2487 2734 c-4 -4 -7 -16 -7 -26 0 -13 8 -18 30 -18 l30 0 0 -100 c0
-93 1 -100 20 -100 18 0 20 8 22 98 l3 97 28 3 c23 3 28 8 25 25 -3 20 -10 22
-73 25 -39 1 -74 0 -78 -4z"/>
<path d="M2750 2723 c-108 -55 -77 -225 42 -227 37 -1 43 2 43 19 0 16 -8 21
-37 23 -45 4 -68 31 -68 79 0 44 30 73 76 73 31 0 35 3 32 23 -4 29 -41 33
-88 10z"/>
<path d="M2895 2728 c-3 -8 -4 -63 -3 -124 3 -101 4 -109 23 -109 17 0 20 8
23 48 l3 48 37 -3 c37 -3 37 -4 40 -50 3 -40 6 -48 23 -48 18 0 19 8 19 125 0
118 -1 125 -20 125 -17 0 -20 -7 -20 -50 l0 -50 -39 0 -40 0 -3 47 c-2 36 -7
49 -21 51 -9 2 -19 -3 -22 -10z"/>
<path d="M3294 2727 c-2 -7 -3 -62 -2 -123 3 -104 4 -109 26 -112 21 -3 22 -1
22 82 0 47 4 86 8 86 5 0 17 -9 27 -20 10 -11 22 -20 27 -20 6 0 21 9 35 20
14 11 30 20 34 20 5 0 9 -38 9 -85 0 -78 2 -85 20 -85 19 0 20 7 20 125 0 118
-1 125 -20 125 -10 0 -35 -14 -55 -31 l-36 -32 -39 32 c-41 33 -67 39 -76 18z"/>
<path d="M3615 2683 c-9 -32 -25 -85 -35 -118 -10 -33 -16 -63 -13 -67 9 -16
34 -7 45 17 9 20 18 25 49 25 31 0 38 -4 41 -22 3 -25 48 -40 48 -16 0 7 -15
63 -33 123 -30 102 -34 110 -59 113 -24 3 -28 -1 -43 -55z m60 -70 c5 -19 2
-23 -14 -23 -21 0 -26 15 -15 45 8 19 19 10 29 -22z"/>
<path d="M3803 2733 c-7 -2 -13 -13 -13 -24 0 -14 7 -19 30 -19 l29 0 3 -97
c3 -83 6 -98 20 -101 15 -3 18 8 20 95 l3 98 28 3 c32 4 47 29 26 43 -15 9
-125 11 -146 2z"/>
<path d="M4060 2723 c-73 -37 -88 -131 -31 -195 23 -25 36 -31 72 -32 38 -1
44 2 44 19 0 16 -8 21 -37 23 -44 4 -68 31 -68 77 0 44 20 67 66 74 30 5 39
11 39 26 0 27 -40 31 -85 8z"/>
<path d="M4205 2728 c-3 -8 -4 -63 -3 -124 3 -101 4 -109 23 -109 17 0 20 8
23 48 l3 48 37 -3 c37 -3 37 -4 40 -50 3 -40 6 -48 23 -48 19 0 19 6 17 122
-3 108 -5 123 -20 126 -15 3 -18 -4 -18 -47 l0 -51 -39 0 -40 0 -3 47 c-2 36
-7 49 -21 51 -9 2 -19 -3 -22 -10z"/>
<path d="M1390 2712 c0 -5 15 -15 33 -23 25 -11 33 -21 35 -46 2 -18 -2 -41
-7 -52 -16 -29 4 -36 23 -9 29 42 13 107 -31 127 -28 13 -53 14 -53 3z"/>
<path d="M3118 2685 c-8 -18 -9 -34 -2 -53 7 -18 6 -36 0 -55 -15 -39 2 -61
48 -65 34 -3 38 0 49 27 6 17 15 31 19 31 4 0 8 9 8 20 0 16 -7 20 -33 20 -26
0 -37 6 -47 25 -16 31 -6 44 22 26 27 -17 44 -1 29 28 -18 32 -78 29 -93 -4z
m62 -114 c0 -23 -16 -36 -25 -21 -9 14 1 40 15 40 5 0 10 -9 10 -19z"/>
</g>
</svg>
